<svg width="69" height="70" viewBox="0 0 69 70" fill="none" xmlns="http://www.w3.org/2000/svg">
<path fill-rule="evenodd" clip-rule="evenodd" d="M34.1401 44.451C32.421 44.6204 31.0769 46.0719 31.0769 47.8347C31.0769 49.5975 32.421 51.0487 34.1401 51.218V60.0024C34.1401 60.3111 33.9468 60.5866 33.6567 60.692C33.3666 60.7971 33.0411 60.7095 32.8433 60.4724L16.8864 41.3642C16.4173 40.8028 16.3068 40.0246 16.5997 39.3548L23.3313 23.9678V23.9674C29.3008 23.9674 34.1401 28.8064 34.1401 34.7757V44.451Z" fill="#246AF3"/>
<path fill-rule="evenodd" clip-rule="evenodd" d="M34.8607 44.456V34.7757C34.8607 28.8064 39.6999 23.9674 45.6694 23.9674L52.401 39.3548C52.694 40.0246 52.5834 40.8028 52.1143 41.3642L36.1574 60.4724C35.9596 60.7095 35.6342 60.7971 35.344 60.692C35.0539 60.5866 34.8607 60.3111 34.8607 60.0024V51.2131C36.557 51.0224 37.8771 49.5815 37.8771 47.8347C37.8771 46.0879 36.557 44.647 34.8607 44.456Z" fill="#246AF3"/>
<path fill-rule="evenodd" clip-rule="evenodd" d="M44.3317 22.8057H43.5548C43.8129 22.7951 44.0723 22.7949 44.3317 22.8057ZM24.6665 22.8057C24.9265 22.7949 25.1853 22.7951 25.4434 22.8057H24.6665ZM24.6665 22.8057H23.3318V12.0244C23.3318 10.5 24.5681 9.26422 26.0925 9.26422H30.7143V15.4499C31.9333 14.9589 33.4468 13.1479 34.5777 10.2882C35.5993 13.1479 36.9659 14.9589 38.0661 15.4499V9.26422H42.9083C44.4327 9.26422 45.6689 10.5 45.6689 12.0244V22.8057H44.3317L44.0512 22.7941C38.7133 22.5746 34.4991 18.1835 34.4991 12.8412C34.4991 18.1835 30.285 22.5746 24.947 22.7941L24.6665 22.8057Z" fill="#246AF3"/>
</svg>
